<?xml version="1.0" encoding="utf-8"?><svg xmlns="http://www.w3.org/2000/svg" xmlns:xlink="http://www.w3.org/1999/xlink"><symbol viewBox="0 0 1384 1024" id="approve" xmlns="http://www.w3.org/2000/svg"><path d="M1096.211 80.843L530.316 646.738 287.79 404.212c-53.894-53.894-161.685-53.894-215.579 0s-53.894 161.685 0 215.579l350.316 350.316c53.894 53.894 161.685 53.894 215.579 0l673.685-673.685c53.894-53.894 53.894-161.685 0-215.579-53.894-80.842-161.685-80.842-215.579 0z"/></symbol><symbol viewBox="0 0 1328 1024" id="arrow" xmlns="http://www.w3.org/2000/svg"><path d="M66.135 570.784h1028.533L745.76 898.691c-26.458 24.142-26.458 63.332 0 87.475 26.458 24.308 67.797 24.308 92.601 0l463.005-433.406c24.804-24.142 24.804-63.498 0-87.64L838.361 31.714c-11.575-12.072-29.765-18.189-46.301-18.189s-33.071 6.119-46.301 18.189c-26.458 24.142-26.458 63.332 0 87.475l348.908 327.741H66.134c-36.379 0-66.144 27.78-66.144 62.01s29.765 61.844 66.144 61.844z"/></symbol></svg>